File Name

The Losers 2010 BRRip H264.mp4

File Size
Format : MPEG-4
Format profile : Base Media
Codec ID : isom
File size : 1.75 GiB
Duration : 1h 37mn
Overall bit rate : 2 578 Kbps

Video
ID : 1
Format : AVC
Format/Info : Advanced Video Codec
Format profile : High@L4.1
Format settings, CABAC : Yes
Format settings, ReFrames : 3 frames
Codec ID : avc1
Codec ID/Info : Advanced Video Coding
Duration : 1h 36mn
Bit rate mode : Variable
Bit rate : 1 999 Kbps
Maximum bit rate : 10.3 Mbps
Width : 1 280 pixels
Height : 534 pixels
Display aspect ratio : 2.35:1
Frame rate mode : Constant
Frame rate : 23.976 fps
Resolution : 24 bits
Colorimetry : 4:2:0
Scan type : Progressive
Bits/(Pixel*Frame) : 0.122
Stream size : 1.35 GiB (77%)

Audio #1
ID : 2
Format : AAC
Format/Info : Advanced Audio Codec
Format version : Version 4
Format profile : LC
Format settings, SBR : No
Codec ID : 40
Duration : 1h 37mn
Bit rate mode : Variable
Bit rate : 128 Kbps
Maximum bit rate : 134 Kbps
Channel(s) : 2 channels
Channel positions : L R
Sampling rate : 48.0 KHz
Resolution : 16 bits
Stream size : 88.8 MiB (5%)

Audio #2
ID : 3
Format : AAC
Format/Info : Advanced Audio Codec
Format version : Version 4
Format profile : LC
Format settings, SBR : No
Codec ID : 40
Duration : 1h 37mn
Bit rate mode : Variable
Bit rate : 448 Kbps
Maximum bit rate : 458 Kbps
Channel(s) : 6 channels
Channel positions : Front: L C R, Rear: L R, LFE
Sampling rate : 48.0 KHz
Resolution : 16 bits
Stream size : 311 MiB (17%)

English SRT : ----

Language : English

 
http://www.imdb.com/title/tt0480255/

Release Date: 23 April 2010 (USA)

Genre: Action | Adventure | Crime | Mystery | Thriller 

Plot: After being betrayed and left for dead, members of a CIA black ops team root out those who targeted them for assassination. 

Cast: 
Jeffrey Dean Morgan ... Clay
Zoe Saldana ... Aisha
Chris Evans ... Jensen
Idris Elba ... Roque
Columbus Short ... Pooch
Ã